<mxfile host="65bd71144e">
    <diagram name="ページ1" id="NBVZLjLsD2zXfsYW2GTl">
        <mxGraphModel dx="1131" dy="596" grid="1" gridSize="10" guides="1" tooltips="1" connect="1" arrows="1" fold="1" page="1" pageScale="1" pageWidth="827" pageHeight="1169" math="0" shadow="0">
            <root>
                <mxCell id="0"/>
                <mxCell id="1" parent="0"/>
                <mxCell id="0ci_ckrQfa54B1AMnA_6-3" value="" style="rounded=1;whiteSpace=wrap;html=1;" parent="1" vertex="1">
                    <mxGeometry x="90" y="590" width="370" height="330" as="geometry"/>
                </mxCell>
                <mxCell id="muVOVXjzMBZmnITekJ5N-8" style="edgeStyle=orthogonalEdgeStyle;rounded=0;orthogonalLoop=1;jettySize=auto;html=1;exitX=0.5;exitY=1;exitDx=0;exitDy=0;entryX=0.5;entryY=0;entryDx=0;entryDy=0;" parent="1" source="muVOVXjzMBZmnITekJ5N-1" target="muVOVXjzMBZmnITekJ5N-2" edge="1">
                    <mxGeometry relative="1" as="geometry"/>
                </mxCell>
                <mxCell id="muVOVXjzMBZmnITekJ5N-1" value="Webserv開始" style="rounded=1;whiteSpace=wrap;html=1;" parent="1" vertex="1">
                    <mxGeometry x="120" y="100" width="120" height="40" as="geometry"/>
                </mxCell>
                <mxCell id="muVOVXjzMBZmnITekJ5N-9" style="edgeStyle=orthogonalEdgeStyle;rounded=0;orthogonalLoop=1;jettySize=auto;html=1;exitX=0.5;exitY=1;exitDx=0;exitDy=0;entryX=0.5;entryY=0;entryDx=0;entryDy=0;" parent="1" source="muVOVXjzMBZmnITekJ5N-2" target="muVOVXjzMBZmnITekJ5N-4" edge="1">
                    <mxGeometry relative="1" as="geometry"/>
                </mxCell>
                <mxCell id="muVOVXjzMBZmnITekJ5N-2" value="ソケット通信&lt;br&gt;初期化" style="rounded=0;whiteSpace=wrap;html=1;" parent="1" vertex="1">
                    <mxGeometry x="120" y="180" width="120" height="40" as="geometry"/>
                </mxCell>
                <mxCell id="muVOVXjzMBZmnITekJ5N-11" style="edgeStyle=orthogonalEdgeStyle;rounded=0;orthogonalLoop=1;jettySize=auto;html=1;exitX=0.5;exitY=1;exitDx=0;exitDy=0;entryX=0.5;entryY=0;entryDx=0;entryDy=0;" parent="1" source="muVOVXjzMBZmnITekJ5N-3" target="muVOVXjzMBZmnITekJ5N-5" edge="1">
                    <mxGeometry relative="1" as="geometry"/>
                </mxCell>
                <mxCell id="muVOVXjzMBZmnITekJ5N-3" value="timeout&lt;br&gt;インクリメント" style="rounded=0;whiteSpace=wrap;html=1;" parent="1" vertex="1">
                    <mxGeometry x="320" y="320" width="120" height="40" as="geometry"/>
                </mxCell>
                <mxCell id="muVOVXjzMBZmnITekJ5N-10" style="edgeStyle=orthogonalEdgeStyle;rounded=0;orthogonalLoop=1;jettySize=auto;html=1;exitX=1;exitY=0.5;exitDx=0;exitDy=0;entryX=0;entryY=0.5;entryDx=0;entryDy=0;" parent="1" source="muVOVXjzMBZmnITekJ5N-4" target="muVOVXjzMBZmnITekJ5N-3" edge="1">
                    <mxGeometry relative="1" as="geometry"/>
                </mxCell>
                <mxCell id="muVOVXjzMBZmnITekJ5N-22" style="edgeStyle=orthogonalEdgeStyle;rounded=0;orthogonalLoop=1;jettySize=auto;html=1;exitX=0.5;exitY=1;exitDx=0;exitDy=0;entryX=0.5;entryY=0;entryDx=0;entryDy=0;" parent="1" source="muVOVXjzMBZmnITekJ5N-4" target="muVOVXjzMBZmnITekJ5N-21" edge="1">
                    <mxGeometry relative="1" as="geometry"/>
                </mxCell>
                <mxCell id="muVOVXjzMBZmnITekJ5N-4" value="送信待ち" style="rhombus;whiteSpace=wrap;html=1;" parent="1" vertex="1">
                    <mxGeometry x="120" y="310" width="120" height="60" as="geometry"/>
                </mxCell>
                <mxCell id="muVOVXjzMBZmnITekJ5N-7" style="edgeStyle=orthogonalEdgeStyle;rounded=0;orthogonalLoop=1;jettySize=auto;html=1;exitX=0.5;exitY=1;exitDx=0;exitDy=0;entryX=0.5;entryY=0;entryDx=0;entryDy=0;" parent="1" source="muVOVXjzMBZmnITekJ5N-5" target="muVOVXjzMBZmnITekJ5N-6" edge="1">
                    <mxGeometry relative="1" as="geometry"/>
                </mxCell>
                <mxCell id="muVOVXjzMBZmnITekJ5N-5" value="timeout &amp;gt; 閾値" style="rhombus;whiteSpace=wrap;html=1;" parent="1" vertex="1">
                    <mxGeometry x="320" y="410" width="120" height="60" as="geometry"/>
                </mxCell>
                <mxCell id="muVOVXjzMBZmnITekJ5N-12" style="edgeStyle=orthogonalEdgeStyle;rounded=0;orthogonalLoop=1;jettySize=auto;html=1;exitX=1;exitY=0.5;exitDx=0;exitDy=0;" parent="1" source="muVOVXjzMBZmnITekJ5N-6" edge="1">
                    <mxGeometry relative="1" as="geometry">
                        <mxPoint x="180" y="270" as="targetPoint"/>
                        <Array as="points">
                            <mxPoint x="520" y="540"/>
                            <mxPoint x="520" y="270"/>
                        </Array>
                    </mxGeometry>
                </mxCell>
                <mxCell id="muVOVXjzMBZmnITekJ5N-6" value="ソケット&lt;br&gt;クローズ" style="rounded=0;whiteSpace=wrap;html=1;" parent="1" vertex="1">
                    <mxGeometry x="320" y="520" width="120" height="40" as="geometry"/>
                </mxCell>
                <mxCell id="muVOVXjzMBZmnITekJ5N-16" value="Yes" style="text;html=1;align=center;verticalAlign=middle;whiteSpace=wrap;rounded=0;" parent="1" vertex="1">
                    <mxGeometry x="370" y="470" width="60" height="30" as="geometry"/>
                </mxCell>
                <mxCell id="muVOVXjzMBZmnITekJ5N-17" value="" style="endArrow=none;html=1;rounded=0;exitX=1;exitY=0.5;exitDx=0;exitDy=0;" parent="1" source="muVOVXjzMBZmnITekJ5N-5" edge="1">
                    <mxGeometry width="50" height="50" relative="1" as="geometry">
                        <mxPoint x="570" y="400" as="sourcePoint"/>
                        <mxPoint x="520" y="440" as="targetPoint"/>
                    </mxGeometry>
                </mxCell>
                <mxCell id="muVOVXjzMBZmnITekJ5N-18" value="No" style="text;html=1;align=center;verticalAlign=middle;whiteSpace=wrap;rounded=0;" parent="1" vertex="1">
                    <mxGeometry x="420" y="410" width="60" height="30" as="geometry"/>
                </mxCell>
                <mxCell id="muVOVXjzMBZmnITekJ5N-19" value="きた" style="text;html=1;strokeColor=none;fillColor=none;align=center;verticalAlign=middle;whiteSpace=wrap;rounded=0;" parent="1" vertex="1">
                    <mxGeometry x="170" y="370" width="60" height="30" as="geometry"/>
                </mxCell>
                <mxCell id="muVOVXjzMBZmnITekJ5N-20" value="わからない" style="text;html=1;align=center;verticalAlign=middle;whiteSpace=wrap;rounded=0;" parent="1" vertex="1">
                    <mxGeometry x="230" y="622" width="80" height="30" as="geometry"/>
                </mxCell>
                <mxCell id="muVOVXjzMBZmnITekJ5N-25" style="edgeStyle=orthogonalEdgeStyle;rounded=0;orthogonalLoop=1;jettySize=auto;html=1;exitX=0.5;exitY=1;exitDx=0;exitDy=0;entryX=0.5;entryY=0;entryDx=0;entryDy=0;" parent="1" source="muVOVXjzMBZmnITekJ5N-21" target="muVOVXjzMBZmnITekJ5N-24" edge="1">
                    <mxGeometry relative="1" as="geometry"/>
                </mxCell>
                <mxCell id="muVOVXjzMBZmnITekJ5N-21" value="Request&lt;br&gt;ヘッダーパース" style="rounded=0;whiteSpace=wrap;html=1;" parent="1" vertex="1">
                    <mxGeometry x="120" y="520" width="120" height="40" as="geometry"/>
                </mxCell>
                <mxCell id="muVOVXjzMBZmnITekJ5N-40" style="edgeStyle=orthogonalEdgeStyle;rounded=0;orthogonalLoop=1;jettySize=auto;html=1;exitX=0.5;exitY=1;exitDx=0;exitDy=0;entryX=0.5;entryY=0;entryDx=0;entryDy=0;" parent="1" source="muVOVXjzMBZmnITekJ5N-23" target="muVOVXjzMBZmnITekJ5N-41" edge="1">
                    <mxGeometry relative="1" as="geometry">
                        <mxPoint x="380" y="830" as="targetPoint"/>
                    </mxGeometry>
                </mxCell>
                <mxCell id="muVOVXjzMBZmnITekJ5N-23" value="bodyを&lt;br&gt;配列に保存" style="rounded=0;whiteSpace=wrap;html=1;" parent="1" vertex="1">
                    <mxGeometry x="320" y="741" width="120" height="40" as="geometry"/>
                </mxCell>
                <mxCell id="muVOVXjzMBZmnITekJ5N-28" style="edgeStyle=orthogonalEdgeStyle;rounded=0;orthogonalLoop=1;jettySize=auto;html=1;exitX=0.5;exitY=1;exitDx=0;exitDy=0;entryX=0.5;entryY=0;entryDx=0;entryDy=0;" parent="1" source="muVOVXjzMBZmnITekJ5N-24" target="muVOVXjzMBZmnITekJ5N-29" edge="1">
                    <mxGeometry relative="1" as="geometry">
                        <mxPoint x="180" y="720" as="targetPoint"/>
                    </mxGeometry>
                </mxCell>
                <mxCell id="muVOVXjzMBZmnITekJ5N-32" style="edgeStyle=orthogonalEdgeStyle;rounded=0;orthogonalLoop=1;jettySize=auto;html=1;exitX=1;exitY=0.5;exitDx=0;exitDy=0;entryX=0;entryY=0.5;entryDx=0;entryDy=0;" parent="1" source="muVOVXjzMBZmnITekJ5N-24" target="muVOVXjzMBZmnITekJ5N-100" edge="1">
                    <mxGeometry relative="1" as="geometry">
                        <mxPoint x="320" y="650" as="targetPoint"/>
                    </mxGeometry>
                </mxCell>
                <mxCell id="muVOVXjzMBZmnITekJ5N-24" value="Bodyサイズ&lt;br&gt;ヘッダから" style="rhombus;whiteSpace=wrap;html=1;" parent="1" vertex="1">
                    <mxGeometry x="120" y="620" width="120" height="60" as="geometry"/>
                </mxCell>
                <mxCell id="muVOVXjzMBZmnITekJ5N-26" value="わかる" style="text;html=1;align=center;verticalAlign=middle;whiteSpace=wrap;rounded=0;" parent="1" vertex="1">
                    <mxGeometry x="170" y="680" width="80" height="30" as="geometry"/>
                </mxCell>
                <mxCell id="muVOVXjzMBZmnITekJ5N-30" style="edgeStyle=orthogonalEdgeStyle;rounded=0;orthogonalLoop=1;jettySize=auto;html=1;exitX=1;exitY=0.5;exitDx=0;exitDy=0;entryX=0;entryY=0.5;entryDx=0;entryDy=0;" parent="1" source="muVOVXjzMBZmnITekJ5N-29" target="muVOVXjzMBZmnITekJ5N-23" edge="1">
                    <mxGeometry relative="1" as="geometry"/>
                </mxCell>
                <mxCell id="muVOVXjzMBZmnITekJ5N-37" style="edgeStyle=orthogonalEdgeStyle;rounded=0;orthogonalLoop=1;jettySize=auto;html=1;exitX=0.5;exitY=1;exitDx=0;exitDy=0;entryX=0.5;entryY=0;entryDx=0;entryDy=0;" parent="1" source="muVOVXjzMBZmnITekJ5N-29" target="muVOVXjzMBZmnITekJ5N-36" edge="1">
                    <mxGeometry relative="1" as="geometry"/>
                </mxCell>
                <mxCell id="muVOVXjzMBZmnITekJ5N-29" value="body&amp;nbsp; &amp;gt; 1500" style="rhombus;whiteSpace=wrap;html=1;" parent="1" vertex="1">
                    <mxGeometry x="120" y="726" width="120" height="70" as="geometry"/>
                </mxCell>
                <mxCell id="muVOVXjzMBZmnITekJ5N-34" value="Yes" style="text;html=1;align=center;verticalAlign=middle;whiteSpace=wrap;rounded=0;" parent="1" vertex="1">
                    <mxGeometry x="360" y="890" width="80" height="30" as="geometry"/>
                </mxCell>
                <mxCell id="0ci_ckrQfa54B1AMnA_6-6" style="edgeStyle=orthogonalEdgeStyle;rounded=0;orthogonalLoop=1;jettySize=auto;html=1;exitX=0.5;exitY=1;exitDx=0;exitDy=0;" parent="1" source="muVOVXjzMBZmnITekJ5N-36" target="0ci_ckrQfa54B1AMnA_6-5" edge="1">
                    <mxGeometry relative="1" as="geometry"/>
                </mxCell>
                <mxCell id="muVOVXjzMBZmnITekJ5N-36" value="一時ファイルに保存" style="rounded=0;whiteSpace=wrap;html=1;" parent="1" vertex="1">
                    <mxGeometry x="120" y="840" width="120" height="40" as="geometry"/>
                </mxCell>
                <mxCell id="muVOVXjzMBZmnITekJ5N-42" style="edgeStyle=orthogonalEdgeStyle;rounded=0;orthogonalLoop=1;jettySize=auto;html=1;exitX=0.5;exitY=1;exitDx=0;exitDy=0;entryX=0.5;entryY=0;entryDx=0;entryDy=0;" parent="1" source="muVOVXjzMBZmnITekJ5N-41" target="muVOVXjzMBZmnITekJ5N-49" edge="1">
                    <mxGeometry relative="1" as="geometry">
                        <mxPoint x="380" y="940" as="targetPoint"/>
                    </mxGeometry>
                </mxCell>
                <mxCell id="muVOVXjzMBZmnITekJ5N-48" style="edgeStyle=orthogonalEdgeStyle;rounded=0;orthogonalLoop=1;jettySize=auto;html=1;exitX=1;exitY=0.5;exitDx=0;exitDy=0;entryX=0;entryY=0.5;entryDx=0;entryDy=0;" parent="1" source="muVOVXjzMBZmnITekJ5N-41" target="muVOVXjzMBZmnITekJ5N-47" edge="1">
                    <mxGeometry relative="1" as="geometry"/>
                </mxCell>
                <mxCell id="muVOVXjzMBZmnITekJ5N-41" value="CGI?" style="rhombus;whiteSpace=wrap;html=1;" parent="1" vertex="1">
                    <mxGeometry x="320" y="825" width="120" height="70" as="geometry"/>
                </mxCell>
                <mxCell id="muVOVXjzMBZmnITekJ5N-44" value="1500 byte以下" style="text;html=1;align=center;verticalAlign=middle;whiteSpace=wrap;rounded=0;" parent="1" vertex="1">
                    <mxGeometry x="235" y="736" width="80" height="30" as="geometry"/>
                </mxCell>
                <mxCell id="muVOVXjzMBZmnITekJ5N-46" value="No" style="text;html=1;align=center;verticalAlign=middle;whiteSpace=wrap;rounded=0;" parent="1" vertex="1">
                    <mxGeometry x="400" y="830" width="80" height="30" as="geometry"/>
                </mxCell>
                <mxCell id="muVOVXjzMBZmnITekJ5N-75" style="edgeStyle=orthogonalEdgeStyle;rounded=0;orthogonalLoop=1;jettySize=auto;html=1;exitX=1;exitY=0.5;exitDx=0;exitDy=0;entryX=1;entryY=0.5;entryDx=0;entryDy=0;" parent="1" source="muVOVXjzMBZmnITekJ5N-47" target="muVOVXjzMBZmnITekJ5N-68" edge="1">
                    <mxGeometry relative="1" as="geometry">
                        <Array as="points">
                            <mxPoint x="710" y="860"/>
                            <mxPoint x="710" y="1189"/>
                        </Array>
                    </mxGeometry>
                </mxCell>
                <mxCell id="muVOVXjzMBZmnITekJ5N-47" value="サーバー処理" style="rounded=0;whiteSpace=wrap;html=1;" parent="1" vertex="1">
                    <mxGeometry x="494" y="840" width="120" height="40" as="geometry"/>
                </mxCell>
                <mxCell id="muVOVXjzMBZmnITekJ5N-66" style="edgeStyle=orthogonalEdgeStyle;rounded=0;orthogonalLoop=1;jettySize=auto;html=1;exitX=1;exitY=0.5;exitDx=0;exitDy=0;entryX=0;entryY=0.5;entryDx=0;entryDy=0;" parent="1" source="muVOVXjzMBZmnITekJ5N-49" edge="1">
                    <mxGeometry relative="1" as="geometry">
                        <mxPoint x="494" y="975" as="targetPoint"/>
                    </mxGeometry>
                </mxCell>
                <mxCell id="muVOVXjzMBZmnITekJ5N-67" style="edgeStyle=orthogonalEdgeStyle;rounded=0;orthogonalLoop=1;jettySize=auto;html=1;exitX=0.5;exitY=1;exitDx=0;exitDy=0;entryX=0.5;entryY=0;entryDx=0;entryDy=0;" parent="1" source="muVOVXjzMBZmnITekJ5N-49" target="muVOVXjzMBZmnITekJ5N-58" edge="1">
                    <mxGeometry relative="1" as="geometry"/>
                </mxCell>
                <mxCell id="muVOVXjzMBZmnITekJ5N-49" value="fork&lt;br&gt;親？" style="rhombus;whiteSpace=wrap;html=1;" parent="1" vertex="1">
                    <mxGeometry x="320" y="940" width="120" height="70" as="geometry"/>
                </mxCell>
                <mxCell id="muVOVXjzMBZmnITekJ5N-50" value="Yes" style="text;html=1;align=center;verticalAlign=middle;whiteSpace=wrap;rounded=0;" parent="1" vertex="1">
                    <mxGeometry x="360" y="995" width="80" height="30" as="geometry"/>
                </mxCell>
                <mxCell id="muVOVXjzMBZmnITekJ5N-55" value="No" style="text;html=1;align=center;verticalAlign=middle;whiteSpace=wrap;rounded=0;" parent="1" vertex="1">
                    <mxGeometry x="410" y="1320" width="80" height="30" as="geometry"/>
                </mxCell>
                <mxCell id="muVOVXjzMBZmnITekJ5N-61" style="edgeStyle=orthogonalEdgeStyle;rounded=0;orthogonalLoop=1;jettySize=auto;html=1;exitX=1;exitY=0.5;exitDx=0;exitDy=0;entryX=0;entryY=0.5;entryDx=0;entryDy=0;" parent="1" source="muVOVXjzMBZmnITekJ5N-58" target="muVOVXjzMBZmnITekJ5N-60" edge="1">
                    <mxGeometry relative="1" as="geometry"/>
                </mxCell>
                <mxCell id="muVOVXjzMBZmnITekJ5N-69" style="edgeStyle=orthogonalEdgeStyle;rounded=0;orthogonalLoop=1;jettySize=auto;html=1;exitX=0.5;exitY=1;exitDx=0;exitDy=0;entryX=0.5;entryY=0;entryDx=0;entryDy=0;" parent="1" source="muVOVXjzMBZmnITekJ5N-58" target="muVOVXjzMBZmnITekJ5N-68" edge="1">
                    <mxGeometry relative="1" as="geometry"/>
                </mxCell>
                <mxCell id="muVOVXjzMBZmnITekJ5N-58" value="子プロセス&lt;br&gt;終了？" style="rhombus;whiteSpace=wrap;html=1;" parent="1" vertex="1">
                    <mxGeometry x="320" y="1060" width="120" height="70" as="geometry"/>
                </mxCell>
                <mxCell id="muVOVXjzMBZmnITekJ5N-70" style="edgeStyle=orthogonalEdgeStyle;rounded=0;orthogonalLoop=1;jettySize=auto;html=1;exitX=0.5;exitY=1;exitDx=0;exitDy=0;" parent="1" source="muVOVXjzMBZmnITekJ5N-60" edge="1">
                    <mxGeometry relative="1" as="geometry">
                        <mxPoint x="380" y="1030" as="targetPoint"/>
                        <Array as="points">
                            <mxPoint x="554" y="1115"/>
                            <mxPoint x="554" y="1140"/>
                            <mxPoint x="640" y="1140"/>
                            <mxPoint x="640" y="1030"/>
                        </Array>
                    </mxGeometry>
                </mxCell>
                <mxCell id="muVOVXjzMBZmnITekJ5N-60" value="別のソケット処理&lt;br&gt;or&amp;nbsp;&lt;br&gt;timeout確認" style="rounded=0;whiteSpace=wrap;html=1;" parent="1" vertex="1">
                    <mxGeometry x="500" y="1075" width="120" height="40" as="geometry"/>
                </mxCell>
                <mxCell id="muVOVXjzMBZmnITekJ5N-62" value="No" style="text;html=1;align=center;verticalAlign=middle;whiteSpace=wrap;rounded=0;" parent="1" vertex="1">
                    <mxGeometry x="420" y="950" width="80" height="30" as="geometry"/>
                </mxCell>
                <mxCell id="muVOVXjzMBZmnITekJ5N-77" style="edgeStyle=orthogonalEdgeStyle;rounded=0;orthogonalLoop=1;jettySize=auto;html=1;exitX=0.5;exitY=1;exitDx=0;exitDy=0;entryX=0.5;entryY=0;entryDx=0;entryDy=0;" parent="1" source="muVOVXjzMBZmnITekJ5N-68" target="muVOVXjzMBZmnITekJ5N-76" edge="1">
                    <mxGeometry relative="1" as="geometry"/>
                </mxCell>
                <mxCell id="muVOVXjzMBZmnITekJ5N-68" value="Request作成" style="rounded=0;whiteSpace=wrap;html=1;" parent="1" vertex="1">
                    <mxGeometry x="320" y="1169" width="120" height="40" as="geometry"/>
                </mxCell>
                <mxCell id="muVOVXjzMBZmnITekJ5N-72" value="CGI終了" style="rounded=1;whiteSpace=wrap;html=1;" parent="1" vertex="1">
                    <mxGeometry x="610" y="955" width="80" height="40" as="geometry"/>
                </mxCell>
                <mxCell id="muVOVXjzMBZmnITekJ5N-74" style="edgeStyle=orthogonalEdgeStyle;rounded=0;orthogonalLoop=1;jettySize=auto;html=1;exitX=1;exitY=0.5;exitDx=0;exitDy=0;entryX=0;entryY=0.5;entryDx=0;entryDy=0;" parent="1" source="muVOVXjzMBZmnITekJ5N-73" target="muVOVXjzMBZmnITekJ5N-72" edge="1">
                    <mxGeometry relative="1" as="geometry"/>
                </mxCell>
                <mxCell id="muVOVXjzMBZmnITekJ5N-73" value="CGI開始" style="rounded=1;whiteSpace=wrap;html=1;" parent="1" vertex="1">
                    <mxGeometry x="494" y="955" width="76" height="40" as="geometry"/>
                </mxCell>
                <mxCell id="muVOVXjzMBZmnITekJ5N-89" style="edgeStyle=orthogonalEdgeStyle;rounded=0;orthogonalLoop=1;jettySize=auto;html=1;exitX=0.5;exitY=1;exitDx=0;exitDy=0;entryX=0.5;entryY=0;entryDx=0;entryDy=0;" parent="1" source="muVOVXjzMBZmnITekJ5N-76" target="muVOVXjzMBZmnITekJ5N-78" edge="1">
                    <mxGeometry relative="1" as="geometry"/>
                </mxCell>
                <mxCell id="muVOVXjzMBZmnITekJ5N-76" value="Request送信" style="rounded=0;whiteSpace=wrap;html=1;" parent="1" vertex="1">
                    <mxGeometry x="320" y="1240" width="120" height="40" as="geometry"/>
                </mxCell>
                <mxCell id="muVOVXjzMBZmnITekJ5N-81" style="edgeStyle=orthogonalEdgeStyle;rounded=0;orthogonalLoop=1;jettySize=auto;html=1;exitX=1;exitY=0.5;exitDx=0;exitDy=0;entryX=0;entryY=0.5;entryDx=0;entryDy=0;" parent="1" source="muVOVXjzMBZmnITekJ5N-78" target="muVOVXjzMBZmnITekJ5N-80" edge="1">
                    <mxGeometry relative="1" as="geometry"/>
                </mxCell>
                <mxCell id="muVOVXjzMBZmnITekJ5N-96" style="edgeStyle=orthogonalEdgeStyle;rounded=0;orthogonalLoop=1;jettySize=auto;html=1;entryX=0;entryY=0.5;entryDx=0;entryDy=0;" parent="1" target="muVOVXjzMBZmnITekJ5N-4" edge="1">
                    <mxGeometry relative="1" as="geometry">
                        <mxPoint x="70" y="380" as="targetPoint"/>
                        <Array as="points">
                            <mxPoint x="70" y="340"/>
                        </Array>
                        <mxPoint x="70" y="920" as="sourcePoint"/>
                    </mxGeometry>
                </mxCell>
                <mxCell id="muVOVXjzMBZmnITekJ5N-78" value="すべて送信した？" style="rhombus;whiteSpace=wrap;html=1;" parent="1" vertex="1">
                    <mxGeometry x="320" y="1310" width="120" height="70" as="geometry"/>
                </mxCell>
                <mxCell id="muVOVXjzMBZmnITekJ5N-88" style="edgeStyle=orthogonalEdgeStyle;rounded=0;orthogonalLoop=1;jettySize=auto;html=1;exitX=0.5;exitY=1;exitDx=0;exitDy=0;entryX=1;entryY=0.5;entryDx=0;entryDy=0;" parent="1" source="muVOVXjzMBZmnITekJ5N-80" target="muVOVXjzMBZmnITekJ5N-76" edge="1">
                    <mxGeometry relative="1" as="geometry">
                        <mxPoint x="770" y="1310" as="targetPoint"/>
                        <Array as="points">
                            <mxPoint x="540" y="1410"/>
                            <mxPoint x="760" y="1410"/>
                            <mxPoint x="760" y="1260"/>
                        </Array>
                    </mxGeometry>
                </mxCell>
                <mxCell id="muVOVXjzMBZmnITekJ5N-93" style="edgeStyle=orthogonalEdgeStyle;rounded=0;orthogonalLoop=1;jettySize=auto;html=1;exitX=1;exitY=0.5;exitDx=0;exitDy=0;entryX=0;entryY=0.5;entryDx=0;entryDy=0;" parent="1" source="muVOVXjzMBZmnITekJ5N-80" target="muVOVXjzMBZmnITekJ5N-92" edge="1">
                    <mxGeometry relative="1" as="geometry"/>
                </mxCell>
                <mxCell id="muVOVXjzMBZmnITekJ5N-80" value="EpollはOUT？" style="rhombus;whiteSpace=wrap;html=1;" parent="1" vertex="1">
                    <mxGeometry x="480" y="1310" width="120" height="70" as="geometry"/>
                </mxCell>
                <mxCell id="muVOVXjzMBZmnITekJ5N-82" value="No" style="text;html=1;align=center;verticalAlign=middle;whiteSpace=wrap;rounded=0;" parent="1" vertex="1">
                    <mxGeometry x="414" y="1070" width="80" height="30" as="geometry"/>
                </mxCell>
                <mxCell id="muVOVXjzMBZmnITekJ5N-84" value="Yes" style="text;html=1;align=center;verticalAlign=middle;whiteSpace=wrap;rounded=0;" parent="1" vertex="1">
                    <mxGeometry x="520" y="1370" width="80" height="30" as="geometry"/>
                </mxCell>
                <mxCell id="muVOVXjzMBZmnITekJ5N-90" value="No" style="text;html=1;align=center;verticalAlign=middle;whiteSpace=wrap;rounded=0;" parent="1" vertex="1">
                    <mxGeometry x="560" y="1310" width="80" height="30" as="geometry"/>
                </mxCell>
                <mxCell id="muVOVXjzMBZmnITekJ5N-94" style="edgeStyle=orthogonalEdgeStyle;rounded=0;orthogonalLoop=1;jettySize=auto;html=1;exitX=0.5;exitY=0;exitDx=0;exitDy=0;entryX=0.5;entryY=0;entryDx=0;entryDy=0;" parent="1" source="muVOVXjzMBZmnITekJ5N-92" target="muVOVXjzMBZmnITekJ5N-80" edge="1">
                    <mxGeometry relative="1" as="geometry">
                        <Array as="points">
                            <mxPoint x="690" y="1280"/>
                            <mxPoint x="540" y="1280"/>
                        </Array>
                    </mxGeometry>
                </mxCell>
                <mxCell id="muVOVXjzMBZmnITekJ5N-92" value="別のソケット処理&lt;br&gt;or&amp;nbsp;&lt;br&gt;timeout確認" style="rounded=0;whiteSpace=wrap;html=1;" parent="1" vertex="1">
                    <mxGeometry x="630" y="1325" width="120" height="40" as="geometry"/>
                </mxCell>
                <mxCell id="muVOVXjzMBZmnITekJ5N-95" value="Yes" style="text;html=1;align=center;verticalAlign=middle;whiteSpace=wrap;rounded=0;" parent="1" vertex="1">
                    <mxGeometry x="374" y="1365" width="80" height="30" as="geometry"/>
                </mxCell>
                <mxCell id="muVOVXjzMBZmnITekJ5N-97" value="こない" style="text;html=1;strokeColor=none;fillColor=none;align=center;verticalAlign=middle;whiteSpace=wrap;rounded=0;" parent="1" vertex="1">
                    <mxGeometry x="210" y="300" width="60" height="30" as="geometry"/>
                </mxCell>
                <mxCell id="muVOVXjzMBZmnITekJ5N-101" style="edgeStyle=orthogonalEdgeStyle;rounded=0;orthogonalLoop=1;jettySize=auto;html=1;exitX=0.5;exitY=1;exitDx=0;exitDy=0;endArrow=none;endFill=0;" parent="1" source="muVOVXjzMBZmnITekJ5N-100" edge="1">
                    <mxGeometry relative="1" as="geometry">
                        <mxPoint x="380" y="800" as="targetPoint"/>
                        <Array as="points">
                            <mxPoint x="380" y="710"/>
                            <mxPoint x="530" y="710"/>
                            <mxPoint x="530" y="800"/>
                        </Array>
                    </mxGeometry>
                </mxCell>
                <mxCell id="muVOVXjzMBZmnITekJ5N-104" style="edgeStyle=orthogonalEdgeStyle;rounded=0;orthogonalLoop=1;jettySize=auto;html=1;exitX=1;exitY=0.5;exitDx=0;exitDy=0;entryX=0;entryY=0.5;entryDx=0;entryDy=0;" parent="1" source="muVOVXjzMBZmnITekJ5N-100" target="muVOVXjzMBZmnITekJ5N-102" edge="1">
                    <mxGeometry relative="1" as="geometry"/>
                </mxCell>
                <mxCell id="muVOVXjzMBZmnITekJ5N-100" value="Bodyに&lt;br&gt;データがある" style="rhombus;whiteSpace=wrap;html=1;" parent="1" vertex="1">
                    <mxGeometry x="320" y="615" width="120" height="70" as="geometry"/>
                </mxCell>
                <mxCell id="muVOVXjzMBZmnITekJ5N-107" style="edgeStyle=orthogonalEdgeStyle;rounded=0;orthogonalLoop=1;jettySize=auto;html=1;exitX=1;exitY=0.5;exitDx=0;exitDy=0;" parent="1" source="muVOVXjzMBZmnITekJ5N-102" edge="1">
                    <mxGeometry relative="1" as="geometry">
                        <mxPoint x="180" y="240" as="targetPoint"/>
                        <Array as="points">
                            <mxPoint x="620" y="650"/>
                            <mxPoint x="620" y="240"/>
                        </Array>
                    </mxGeometry>
                </mxCell>
                <mxCell id="muVOVXjzMBZmnITekJ5N-102" value="エラー&lt;br&gt;レスポンス送信" style="rounded=0;whiteSpace=wrap;html=1;" parent="1" vertex="1">
                    <mxGeometry x="480" y="630" width="120" height="40" as="geometry"/>
                </mxCell>
                <mxCell id="0ci_ckrQfa54B1AMnA_6-1" value="Yes" style="text;html=1;align=center;verticalAlign=middle;whiteSpace=wrap;rounded=0;" parent="1" vertex="1">
                    <mxGeometry x="160" y="790" width="80" height="30" as="geometry"/>
                </mxCell>
                <mxCell id="0ci_ckrQfa54B1AMnA_6-2" value="" style="edgeStyle=orthogonalEdgeStyle;rounded=0;orthogonalLoop=1;jettySize=auto;html=1;exitX=0.5;exitY=1;exitDx=0;exitDy=0;endArrow=none;endFill=0;" parent="1" source="muVOVXjzMBZmnITekJ5N-78" edge="1">
                    <mxGeometry relative="1" as="geometry">
                        <mxPoint x="70" y="760" as="targetPoint"/>
                        <Array as="points">
                            <mxPoint x="380" y="1400"/>
                            <mxPoint x="70" y="1400"/>
                        </Array>
                        <mxPoint x="380" y="1380" as="sourcePoint"/>
                    </mxGeometry>
                </mxCell>
                <mxCell id="0ci_ckrQfa54B1AMnA_6-4" value="ヘッダー解析" style="rounded=1;whiteSpace=wrap;html=1;" parent="1" vertex="1">
                    <mxGeometry x="230" y="570" width="120" height="39" as="geometry"/>
                </mxCell>
                <mxCell id="0ci_ckrQfa54B1AMnA_6-7" style="edgeStyle=orthogonalEdgeStyle;rounded=0;orthogonalLoop=1;jettySize=auto;html=1;exitX=1;exitY=0.5;exitDx=0;exitDy=0;entryX=0;entryY=0.5;entryDx=0;entryDy=0;" parent="1" source="0ci_ckrQfa54B1AMnA_6-5" target="muVOVXjzMBZmnITekJ5N-41" edge="1">
                    <mxGeometry relative="1" as="geometry"/>
                </mxCell>
                <mxCell id="0ci_ckrQfa54B1AMnA_6-10" style="edgeStyle=orthogonalEdgeStyle;rounded=0;orthogonalLoop=1;jettySize=auto;html=1;exitX=0.5;exitY=1;exitDx=0;exitDy=0;" parent="1" source="0ci_ckrQfa54B1AMnA_6-5" edge="1">
                    <mxGeometry relative="1" as="geometry">
                        <mxPoint x="70" y="1030" as="targetPoint"/>
                        <Array as="points">
                            <mxPoint x="180" y="1030"/>
                        </Array>
                    </mxGeometry>
                </mxCell>
                <mxCell id="0ci_ckrQfa54B1AMnA_6-5" value="Bodyのすべて&lt;br&gt;読み終わった？" style="rhombus;whiteSpace=wrap;html=1;" parent="1" vertex="1">
                    <mxGeometry x="120" y="940" width="120" height="70" as="geometry"/>
                </mxCell>
                <mxCell id="0ci_ckrQfa54B1AMnA_6-8" value="Yes" style="text;html=1;align=center;verticalAlign=middle;whiteSpace=wrap;rounded=0;" parent="1" vertex="1">
                    <mxGeometry x="235" y="980" width="80" height="30" as="geometry"/>
                </mxCell>
                <mxCell id="0ci_ckrQfa54B1AMnA_6-12" value="No" style="text;html=1;align=center;verticalAlign=middle;whiteSpace=wrap;rounded=0;" parent="1" vertex="1">
                    <mxGeometry x="110" y="1030" width="80" height="30" as="geometry"/>
                </mxCell>
                <mxCell id="Dh1aoO1QrnJJe2EP6Zx1-5" value="Yes" style="text;html=1;align=center;verticalAlign=middle;whiteSpace=wrap;rounded=0;" parent="1" vertex="1">
                    <mxGeometry x="400" y="619" width="80" height="30" as="geometry"/>
                </mxCell>
                <mxCell id="Dh1aoO1QrnJJe2EP6Zx1-6" value="No" style="text;html=1;align=center;verticalAlign=middle;whiteSpace=wrap;rounded=0;" parent="1" vertex="1">
                    <mxGeometry x="360" y="680" width="80" height="30" as="geometry"/>
                </mxCell>
            </root>
        </mxGraphModel>
    </diagram>
</mxfile>